# xmcd
#
# Track frame offsets: 
#        150
#        21105
#        43239
#        62971
#        81114
#        100940
#        126822
#        139112
#        158255
#        179625
#
# Disc length: 2698 seconds
#
# Revision: 1
# Processed by: cddbd v1.5.2PL0 Copyright (c) Steve Scherf et al.
# Submitted via: ExactAudioCopy v1.0b3
#
DISCID=830a880a
DTITLE=Junko Yagami - Yumemiru koro wo sugite mo
DYEAR=1982
DGENRE=Jpop
TTITLE0=Yumemiru koro wo sugite mo
TTITLE1=Secret Love
TTITLE2=Shiroi hanataba
TTITLE3=Kinyōbi no yoru
TTITLE4=Ichinenmae no koibito
TTITLE5=Nice Memories
TTITLE6=B.G.M
TTITLE7=I'm A Woman
TTITLE8=Fly Away
TTITLE9=Futari dake
EXTD=
EXTT0=
EXTT1=
EXTT2=
EXTT3=
EXTT4=
EXTT5=
EXTT6=
EXTT7=
EXTT8=
EXTT9=
PLAYORDER=
